<?xml version="1.0" encoding="UTF-8"?>
<svg id="Calque_1" data-name="Calque 1" xmlns="http://www.w3.org/2000/svg" viewBox="0 0 37.69 15.52">
  <defs>
    <style>
      .cls-1 {
        fill: #00a6e3;
      }

      .cls-1, .cls-2 {
        stroke-width: 0px;
      }

      .cls-2 {
        fill: #014e8c;
      }
    </style>
  </defs>
  <g>
    <path class="cls-2" d="m5.05,6.19l-.25,1.26H1.63l.98-5.07h1.38l-.74,3.8h1.79Z"/>
    <path class="cls-2" d="m7.71,3.64l-.14.71h1.44l-.22,1.12h-1.44l-.14.73h1.78l-.24,1.26h-3.15l.98-5.07h3.15l-.24,1.25h-1.78Z"/>
    <path class="cls-2" d="m9.64,6.51l.91-.79c.2.35.55.58.92.58.18,0,.46-.08.5-.31.06-.3-.35-.54-.74-.78-.6-.37-1-.88-.85-1.6.16-.76.94-1.29,1.83-1.29.69,0,1.28.37,1.49.88l-.9.77c-.12-.25-.39-.42-.68-.42-.24,0-.4.14-.43.3-.05.26.37.45.72.65.65.39,1.06.88.92,1.63-.15.84-.87,1.4-1.94,1.4-.91,0-1.51-.43-1.77-1.01Z"/>
    <path class="cls-2" d="m17.11,2.39h1.74c1,0,1.74.69,1.58,1.82-.15,1.07-.99,1.75-2.27,1.75h-.37l-.29,1.49h-1.37l.98-5.07Zm2.04,1.81c.05-.34-.17-.57-.54-.57h-.37l-.21,1.09h.37c.44,0,.69-.2.75-.52Z"/>
    <path class="cls-2" d="m23.72,5.48l1.05,1.98h-1.48l-.93-1.94-.38,1.94h-1.37l.98-5.07h1.7c1.03,0,1.76.68,1.58,1.74-.11.66-.55,1.17-1.15,1.35Zm-1.19-.88h.36c.34,0,.58-.18.63-.47.04-.29-.15-.51-.44-.51h-.36l-.19.98Z"/>
    <path class="cls-2" d="m31.96,6.51l.91-.79c.2.35.55.58.92.58.18,0,.46-.08.5-.31.06-.3-.35-.54-.74-.78-.6-.37-1-.88-.85-1.6.16-.76.94-1.29,1.83-1.29.69,0,1.28.37,1.49.88l-.9.77c-.12-.25-.39-.42-.68-.42-.24,0-.4.14-.43.3-.05.26.37.45.72.65.65.39,1.06.88.92,1.63-.15.84-.87,1.4-1.94,1.4-.91,0-1.51-.43-1.77-1.01Z"/>
  </g>
  <g>
    <path class="cls-1" d="m2.09,10.68c-.13,1.1-1.2,1.1-1.37,1.1h-.72l.43-2.21h.72c.46,0,1.05.27.95,1.1Zm-1.07-.56h-.11l-.22,1.11h.11c.26,0,.62-.13.68-.55.05-.36-.16-.56-.47-.56Z"/>
    <path class="cls-1" d="m3.2,10.12l-.06.31h.63l-.09.49h-.63l-.06.32h.78l-.11.55h-1.37l.43-2.21h1.37l-.11.54h-.77Z"/>
    <path class="cls-1" d="m6.53,11.24l-.11.55h-1.38l.43-2.21h.6l-.32,1.66h.78Z"/>
    <path class="cls-1" d="m8.19,11.53h-.75l-.15.26h-.69l1.4-2.24h.32l.53,2.24h-.61l-.05-.26Zm-.08-.43l-.11-.54-.31.54h.42Z"/>
    <path class="cls-1" d="m10.56,9.58h.76c.44,0,.76.3.69.79-.07.47-.43.76-.99.76h-.16l-.13.65h-.6l.43-2.21Zm.89.79c.02-.15-.07-.25-.23-.25h-.16l-.09.47h.16c.19,0,.3-.09.33-.23Z"/>
    <path class="cls-1" d="m12.52,9.58h.6l-.43,2.21h-.6l.43-2.21Z"/>
    <path class="cls-1" d="m13.13,11.38l.4-.35c.09.15.24.25.4.25.08,0,.2-.04.22-.14.03-.13-.15-.23-.32-.34-.26-.16-.44-.38-.37-.7.07-.33.41-.56.8-.56.3,0,.56.16.65.38l-.39.33c-.05-.11-.17-.18-.3-.18-.1,0-.18.06-.19.13-.02.11.16.19.32.28.28.17.46.39.4.71-.07.36-.38.61-.85.61-.4,0-.66-.19-.77-.44Z"/>
    <path class="cls-1" d="m15.13,10.65c.12-.76.8-1.17,1.36-1.12.31.03.59.19.73.44l-.43.39c-.12-.19-.27-.27-.44-.27-.29,0-.56.23-.63.56-.07.33.09.62.43.62.17,0,.33-.07.49-.2l.26.46c-.24.2-.56.3-.85.3-.68,0-1.04-.53-.94-1.18Z"/>
    <path class="cls-1" d="m17.67,9.58h.6l-.43,2.21h-.6l.43-2.21Z"/>
    <path class="cls-1" d="m20.58,9.58l-.43,2.23h-.2l-.82-1.08-.21,1.06h-.6l.43-2.23h.2l.82,1.08.21-1.06h.6Z"/>
    <path class="cls-1" d="m21.56,10.12l-.06.31h.63l-.09.49h-.63l-.06.32h.78l-.11.55h-1.38l.43-2.21h1.37l-.11.54h-.77Z"/>
    <path class="cls-1" d="m25.39,11.81c-.15,0-.34-.07-.53-.18-.18.13-.4.2-.66.2-.57,0-.85-.32-.77-.75.05-.25.21-.44.47-.55-.05-.14-.07-.28-.05-.41.05-.35.38-.61.78-.61.38,0,.62.23.6.53l-.53.13c0-.1-.03-.19-.15-.19-.07,0-.16.05-.18.17-.04.21.15.5.4.74.03-.08.06-.17.09-.27h.56c-.06.22-.13.42-.22.59.11.06.21.09.28.09l-.11.51Zm-.95-.5c-.13-.12-.25-.26-.34-.4-.06.05-.11.12-.12.19-.02.13.05.24.27.24.07,0,.14-.01.19-.04Z"/>
    <path class="cls-1" d="m28.81,10.68c-.13,1.1-1.2,1.1-1.37,1.1h-.72l.43-2.21h.72c.46,0,1.05.27.95,1.1Zm-1.07-.56h-.11l-.22,1.11h.11c.26,0,.62-.13.68-.55.05-.36-.16-.56-.47-.56Z"/>
    <path class="cls-1" d="m29.14,10.94l.26-1.36h.6l-.26,1.36c-.04.22.06.35.23.35.19,0,.29-.18.33-.35l.26-1.36h.6l-.26,1.36c-.11.58-.51.91-1.01.91-.56,0-.84-.42-.75-.91Z"/>
    <path class="cls-1" d="m32.12,11.38l.4-.35c.09.15.24.25.4.25.08,0,.2-.04.22-.14.03-.13-.15-.23-.32-.34-.26-.16-.44-.38-.37-.7.07-.33.41-.56.8-.56.3,0,.56.16.65.38l-.39.33c-.05-.11-.17-.18-.3-.18-.1,0-.18.06-.19.13-.02.11.16.19.32.28.28.17.46.39.4.71-.07.36-.38.61-.85.61-.4,0-.66-.19-.77-.44Z"/>
    <path class="cls-1" d="m34.42,9.58h.76c.44,0,.76.3.69.79-.07.47-.43.76-.99.76h-.16l-.13.65h-.6l.43-2.21Zm.89.79c.02-.15-.07-.25-.23-.25h-.16l-.09.47h.16c.19,0,.3-.09.33-.23Z"/>
    <path class="cls-1" d="m37.03,11.53h-.75l-.15.26h-.69l1.4-2.24h.32l.53,2.24h-.61l-.05-.26Zm-.08-.43l-.11-.54-.31.54h.42Z"/>
  </g>
  <path class="cls-2" d="m4.85,13.48s23.1.86,28.95-.18c0,0-1.1,2.39-28.95.18Z"/>
  <path class="cls-1" d="m17.08,15.14s10.53.21,13.14-.25c0,0-.71,1.24-13.14.25Z"/>
  <g>
    <path class="cls-1" d="m27.23,3.4c.92-.77,2.24-.73,3.11.05-.06-.11-.13-.21-.22-.31-.85-1.01-2.35-1.14-3.36-.29s-1.14,2.35-.29,3.36c.08.09.16.17.24.25-.59-.99-.4-2.29.51-3.05Z"/>
    <path class="cls-2" d="m30.22,6.96c1.01-.85,1.14-2.35.29-3.36-.07-.09-.16-.17-.24-.24.63.99.45,2.33-.48,3.1s-2.25.73-3.12-.05c.06.09.12.17.18.25.85,1.01,2.35,1.14,3.36.29"/>
  </g>
  <g>
    <path class="cls-1" d="m29.81,1.82c.47-.4,1.16-.38,1.61.02-.03-.05-.07-.11-.11-.16-.44-.52-1.21-.59-1.74-.15s-.59,1.21-.15,1.74c.04.05.08.09.13.13-.31-.51-.21-1.18.26-1.58Z"/>
    <path class="cls-2" d="m31.36,3.67c.52-.44.59-1.21.15-1.74-.04-.05-.08-.09-.12-.13.33.51.23,1.2-.25,1.6s-1.16.38-1.61-.03c.03.05.06.09.09.13.44.52,1.21.59,1.74.15"/>
  </g>
  <g>
    <path class="cls-1" d="m27.69.39c.32-.27.78-.25,1.08.02-.02-.04-.05-.07-.08-.11-.29-.35-.82-.4-1.17-.1s-.4.82-.1,1.17c.03.03.06.06.08.09-.21-.34-.14-.8.18-1.06Z"/>
    <path class="cls-2" d="m28.73,1.63c.35-.29.4-.82.1-1.17-.03-.03-.05-.06-.08-.09.22.35.16.81-.17,1.08s-.78.25-1.09-.02c.02.03.04.06.06.09.29.35.82.4,1.17.1"/>
  </g>
</svg>