<?xml version="1.0" encoding="UTF-8"?>
<svg id="Calque_1" data-name="Calque 1" xmlns="http://www.w3.org/2000/svg" viewBox="0 0 224.89 110">
  <defs>
    <style>
      .cls-1 {
        fill: #00a6e3;
      }

      .cls-1, .cls-2, .cls-3 {
        stroke-width: 0px;
      }

      .cls-2 {
        fill: #014e8c;
      }

      .cls-3 {
        fill: #f2f2f2;
        opacity: .6;
      }
    </style>
  </defs>
  <rect class="cls-3" width="224.89" height="110"/>
  <g>
    <path class="cls-2" d="m46.47,50.24l-1.04,5.01h-13.18l4.07-20.14h5.74l-3.08,15.1h7.44l.04.04Z"/>
    <path class="cls-2" d="m57.53,40.11l-.58,2.82h5.99l-.91,4.45h-5.99l-.58,2.9h7.4l-1,5.01h-13.09l4.07-20.14h13.09l-1,4.97s-7.4,0-7.4,0Z"/>
    <path class="cls-2" d="m65.55,51.51l3.78-3.14c.83,1.39,2.29,2.3,3.82,2.3.75,0,1.91-.32,2.08-1.23.25-1.19-1.45-2.15-3.08-3.1-2.49-1.47-4.16-3.5-3.53-6.36.67-3.02,3.91-5.12,7.61-5.12,2.87,0,5.32,1.47,6.19,3.5l-3.74,3.06c-.5-.99-1.62-1.67-2.83-1.67-1,0-1.66.56-1.79,1.19-.21,1.03,1.54,1.79,2.99,2.58,2.7,1.55,4.41,3.5,3.82,6.48-.62,3.34-3.62,5.56-8.06,5.56-3.78,0-6.28-1.71-7.36-4.01l.08-.04Z"/>
    <path class="cls-2" d="m96.61,35.14h7.23c4.16,0,7.23,2.74,6.57,7.23-.62,4.25-4.12,6.95-9.44,6.95h-1.54l-1.21,5.92h-5.7l4.07-20.14v.04Zm8.48,7.19c.21-1.35-.71-2.26-2.24-2.26h-1.54l-.87,4.33h1.54c1.83,0,2.87-.79,3.12-2.07Z"/>
    <path class="cls-2" d="m124.08,47.42l4.36,7.87h-6.15l-3.87-7.71-1.58,7.71h-5.7l4.07-20.14h7.07c4.28,0,7.32,2.7,6.57,6.91-.46,2.62-2.29,4.65-4.78,5.36Zm-4.95-3.5h1.5c1.41,0,2.41-.72,2.62-1.87.17-1.15-.62-2.03-1.83-2.03h-1.5s-.79,3.89-.79,3.89Z"/>
    <path class="cls-2" d="m158.34,51.51l3.78-3.14c.83,1.39,2.29,2.3,3.82,2.3.75,0,1.91-.32,2.08-1.23.25-1.19-1.45-2.15-3.08-3.1-2.49-1.47-4.16-3.5-3.53-6.36.67-3.02,3.91-5.12,7.61-5.12,2.87,0,5.32,1.47,6.19,3.5l-3.74,3.06c-.5-.99-1.62-1.67-2.83-1.67-1,0-1.66.56-1.79,1.19-.21,1.03,1.54,1.79,2.99,2.58,2.7,1.55,4.41,3.5,3.82,6.48-.62,3.34-3.62,5.56-8.06,5.56-3.78,0-6.28-1.71-7.36-4.01l.08-.04Z"/>
  </g>
  <g>
    <path class="cls-1" d="m34.17,68.08c-.54,4.37-4.99,4.37-5.7,4.37h-2.99l1.79-8.78h2.99c1.91,0,4.36,1.07,3.95,4.37l-.04.04Zm-4.45-2.22h-.46l-.91,4.41h.46c1.08,0,2.58-.52,2.83-2.19.21-1.43-.67-2.22-1.95-2.22h.04Z"/>
    <path class="cls-1" d="m38.78,65.85l-.25,1.23h2.62l-.37,1.95h-2.62l-.25,1.27h3.24l-.46,2.19h-5.7l1.79-8.78h5.7l-.46,2.15h-3.24Z"/>
    <path class="cls-1" d="m52.62,70.3l-.46,2.19h-5.74l1.79-8.78h2.49l-1.33,6.59h3.24Z"/>
    <path class="cls-1" d="m59.52,71.45h-3.12l-.62,1.03h-2.87l5.82-8.9h1.33l2.2,8.9h-2.54l-.21-1.03Zm-.33-1.71l-.46-2.15-1.29,2.15h1.75Z"/>
    <path class="cls-1" d="m69.38,63.71h3.16c1.83,0,3.16,1.19,2.87,3.14-.29,1.87-1.79,3.02-4.12,3.02h-.67l-.54,2.58h-2.49l1.79-8.78v.04Zm3.7,3.14c.08-.6-.29-.99-.96-.99h-.67l-.37,1.87h.67c.79,0,1.25-.36,1.37-.91l-.04.04Z"/>
    <path class="cls-1" d="m77.52,63.71h2.49l-1.79,8.78h-2.49l1.79-8.78Z"/>
    <path class="cls-1" d="m80.06,70.86l1.66-1.39c.37.6,1,.99,1.66.99.33,0,.83-.16.91-.56.12-.52-.62-.91-1.33-1.35-1.08-.64-1.83-1.51-1.54-2.78.29-1.31,1.7-2.22,3.33-2.22,1.25,0,2.33.64,2.7,1.51l-1.62,1.31c-.21-.44-.71-.72-1.25-.72-.42,0-.75.24-.79.52-.08.44.67.75,1.33,1.11,1.16.68,1.91,1.55,1.66,2.82-.29,1.43-1.58,2.42-3.53,2.42-1.66,0-2.74-.75-3.2-1.75v.08Z"/>
    <path class="cls-1" d="m88.37,67.96c.5-3.02,3.33-4.65,5.65-4.45,1.29.12,2.45.75,3.03,1.75l-1.79,1.55c-.5-.75-1.12-1.07-1.83-1.07-1.21,0-2.33.91-2.62,2.22-.29,1.31.37,2.46,1.79,2.46.71,0,1.37-.28,2.04-.79l1.08,1.83c-1,.79-2.33,1.19-3.53,1.19-2.83,0-4.32-2.11-3.91-4.69h.08Z"/>
    <path class="cls-1" d="m98.93,63.71h2.49l-1.79,8.78h-2.49l1.79-8.78Z"/>
    <path class="cls-1" d="m111.03,63.71l-1.79,8.86h-.83l-3.41-4.29-.87,4.21h-2.49l1.79-8.86h.83l3.41,4.29.87-4.21h2.49Z"/>
    <path class="cls-1" d="m115.1,65.85l-.25,1.23h2.62l-.37,1.95h-2.62l-.25,1.27h3.24l-.46,2.19h-5.74l1.79-8.78h5.7l-.46,2.15h-3.2Z"/>
    <path class="cls-1" d="m131.03,72.57c-.62,0-1.41-.28-2.2-.72-.75.52-1.66.79-2.74.79-2.37,0-3.53-1.27-3.2-2.98.21-.99.87-1.75,1.95-2.19-.21-.56-.29-1.11-.21-1.63.21-1.39,1.58-2.42,3.24-2.42s2.58.91,2.49,2.11l-2.2.52c0-.4-.12-.75-.62-.75-.29,0-.67.2-.75.68-.17.83.62,1.99,1.66,2.94.12-.32.25-.68.37-1.07h2.33c-.25.87-.54,1.67-.91,2.34.46.24.87.36,1.16.36l-.46,2.03h.08Zm-3.95-1.99c-.54-.48-1.04-1.03-1.41-1.59-.25.2-.46.48-.5.75-.08.52.21.95,1.12.95.29,0,.58-.04.79-.16v.04Z"/>
    <path class="cls-1" d="m145.24,68.08c-.54,4.37-4.99,4.37-5.7,4.37h-2.99l1.79-8.78h2.99c1.91,0,4.36,1.07,3.95,4.37l-.04.04Zm-4.45-2.22h-.46l-.91,4.41h.46c1.08,0,2.58-.52,2.83-2.19.21-1.43-.67-2.22-1.95-2.22h.04Z"/>
    <path class="cls-1" d="m146.61,69.11l1.08-5.4h2.49l-1.08,5.4c-.17.87.25,1.39.96,1.39.79,0,1.21-.72,1.37-1.39l1.08-5.4h2.49l-1.08,5.4c-.46,2.3-2.12,3.62-4.2,3.62-2.33,0-3.49-1.67-3.12-3.62Z"/>
    <path class="cls-1" d="m159,70.86l1.66-1.39c.37.6,1,.99,1.66.99.33,0,.83-.16.91-.56.12-.52-.62-.91-1.33-1.35-1.08-.64-1.83-1.51-1.54-2.78.29-1.31,1.7-2.22,3.33-2.22,1.25,0,2.33.64,2.7,1.51l-1.62,1.31c-.21-.44-.71-.72-1.25-.72-.42,0-.75.24-.79.52-.08.44.67.75,1.33,1.11,1.16.68,1.91,1.55,1.66,2.82-.29,1.43-1.58,2.42-3.53,2.42-1.66,0-2.74-.75-3.2-1.75v.08Z"/>
    <path class="cls-1" d="m168.56,63.71h3.16c1.83,0,3.16,1.19,2.87,3.14-.29,1.87-1.79,3.02-4.12,3.02h-.67l-.54,2.58h-2.49l1.79-8.78v.04Zm3.7,3.14c.08-.6-.29-.99-.96-.99h-.67l-.37,1.87h.67c.79,0,1.25-.36,1.37-.91l-.04.04Z"/>
    <path class="cls-1" d="m179.41,71.45h-3.12l-.62,1.03h-2.87l5.82-8.9h1.33l2.2,8.9h-2.54l-.21-1.03Zm-.33-1.71l-.46-2.15-1.29,2.15h1.75Z"/>
  </g>
  <path class="cls-2" d="m45.64,79.2s96.03,3.42,120.35-.72c0,0-4.57,9.5-120.35.72Z"/>
  <path class="cls-1" d="m96.48,85.8s43.77.83,54.62-.99c0,0-2.95,4.93-54.62.99Z"/>
  <g>
    <path class="cls-1" d="m138.67,39.15c3.82-3.06,9.31-2.9,12.93.2-.25-.44-.54-.83-.91-1.23-3.53-4.01-9.77-4.53-13.97-1.15-4.2,3.38-4.74,9.34-1.21,13.35.33.36.67.68,1,.99-2.45-3.93-1.66-9.1,2.12-12.12l.04-.04Z"/>
    <path class="cls-2" d="m151.1,53.3c4.2-3.38,4.74-9.34,1.21-13.35-.29-.36-.67-.68-1-.95,2.62,3.93,1.87,9.26-2,12.32-3.87,3.06-9.35,2.9-12.97-.2.25.36.5.68.75.99,3.53,4.01,9.77,4.53,13.97,1.15"/>
  </g>
  <g>
    <path class="cls-1" d="m149.4,32.88c1.95-1.59,4.82-1.51,6.69.08-.12-.2-.29-.44-.46-.64-1.83-2.07-5.03-2.34-7.23-.6s-2.45,4.81-.62,6.91c.17.2.33.36.54.52-1.29-2.03-.87-4.69,1.08-6.28Z"/>
    <path class="cls-2" d="m155.84,40.23c2.16-1.75,2.45-4.81.62-6.91-.17-.2-.33-.36-.5-.52,1.37,2.03.96,4.77-1.04,6.36s-4.82,1.51-6.69-.12c.12.2.25.36.37.52,1.83,2.07,5.03,2.34,7.23.6"/>
  </g>
  <g>
    <path class="cls-1" d="m140.59,27.2c1.33-1.07,3.24-.99,4.49.08-.08-.16-.21-.28-.33-.44-1.21-1.39-3.41-1.59-4.86-.4-1.45,1.19-1.66,3.26-.42,4.65.12.12.25.24.33.36-.87-1.35-.58-3.18.75-4.21l.04-.04Z"/>
    <path class="cls-2" d="m144.91,32.12c1.45-1.15,1.66-3.26.42-4.65-.12-.12-.21-.24-.33-.36.91,1.39.67,3.22-.71,4.29s-3.24.99-4.53-.08c.08.12.17.24.25.36,1.21,1.39,3.41,1.59,4.86.4"/>
  </g>
</svg>